<svg width="580" height="400" xmlns="http://www.w3.org/2000/svg" stroke="null" style="vector-effect: non-scaling-stroke;">
 <!-- Created with Method Draw - http://github.com/duopixel/Method-Draw/ -->

 <g stroke="null">
  <title stroke="null">background</title>
  <rect stroke="null" fill="#56aaff" id="canvas_background" height="402" width="582" y="-1" x="-1"/>
  <g stroke="null" style="vector-effect: non-scaling-stroke;" display="none" overflow="visible" y="0" x="0" height="100%" width="100%" id="canvasGrid">
   <rect fill="url(#gridpattern)" stroke-width="0" y="0" x="0" height="100%" width="100%"/>
  </g>
 </g>
 <g stroke="null">
  <title stroke="null">Layer 1</title>
  <g fill-opacity="0.2" stroke="null" id="svg_10">
   <path id="svg_9" stroke-width="0" fill="#ffffff" d="m423.000039,249.760409l-310.308731,0c-16.623682,0 -16.623682,22.164909 0,22.164909l243.814003,0c16.623682,0 16.623682,22.164909 0,22.164909l-265.978912,0c-16.623682,0 -16.623682,22.164909 0,22.164909l177.319275,0c16.623682,0 16.623682,22.164909 0,22.164909l-132.989456,0c-16.623682,0 -16.623682,22.164909 0,22.164909l620.617462,0c16.623682,0 16.623682,-22.164909 0,-22.164909l-243.814003,0c-16.623682,0 -16.623682,-22.164909 0,-22.164909l221.649094,0c16.623682,0 16.623682,-22.164909 0,-22.164909l-199.484184,0c-16.623682,0 -16.623682,-22.164909 0,-22.164909l155.154366,0c16.623682,0 16.623682,-22.164909 0,-22.164909l-265.978912,0zm-22.164909,22.164909l44.329819,0c16.623682,0 16.623682,22.164909 0,22.164909l-44.329819,0c-16.623682,0 -16.623682,-22.164909 0,-22.164909zm0,44.329819l44.329819,0c16.623682,0 16.623682,22.164909 0,22.164909l-44.329819,0c-16.623682,0 -16.623682,-22.164909 0,-22.164909z"/>
  </g>
  <g stroke="null" id="svg_5">
   <path id="svg_4" stroke-width="0" fill="#ffffff" d="m290.990801,131.441803l-108.036763,0c-40.513786,0 -40.513786,54.018382 0,54.018382l0,0c40.513786,0 40.513786,54.018382 0,54.018382l0,0c-40.513786,0 -40.513786,54.018382 0,54.018382l270.091908,0c40.513786,0 40.513786,-54.018382 0,-54.018382l-54.018382,0c-40.513786,0 -40.513786,-54.018382 0,-54.018382l0,0c40.513786,0 40.513786,-54.018382 0,-54.018382l-108.036763,0z"/>
  </g>
  <g fill-opacity="0.3" stroke="null" id="svg_15">
   <path id="svg_14" stroke-width="0" fill="#ffffff" d="m128.99997,30.750381l-212.874141,0c-22.807944,0 -22.807944,30.410592 0,30.410592l91.231775,0c22.807944,0 22.807944,30.410592 0,30.410592l-30.410592,0c-22.807944,0 -22.807944,30.410592 0,30.410592l0,0c22.807944,0 22.807944,30.410592 0,30.410592l-30.410592,0c-22.807944,0 -22.807944,30.410592 0,30.410592l395.337691,0c22.807944,0 22.807944,-30.410592 0,-30.410592l-121.642367,0c-22.807944,0 -22.807944,-30.410592 0,-30.410592l60.821183,0c22.807944,0 22.807944,-30.410592 0,-30.410592l-60.821183,0c-22.807944,0 -22.807944,-30.410592 0,-30.410592l60.821183,0c22.807944,0 22.807944,-30.410592 0,-30.410592l-152.052958,0z"/>
  </g>
  <g fill-opacity="0.4" stroke="null" id="svg_20">
   <path id="svg_19" stroke-width="0" fill="#ffffff" d="m571.500008,-31.281174l-127.922362,0c-95.941771,0 -95.941771,127.922362 0,127.922362l255.844723,0c95.941771,0 95.941771,-127.922362 0,-127.922362l-127.922362,0z"/>
  </g>
  <ellipse rx="0.5" id="svg_21" cy="309" cx="697" fill-opacity="0.4" stroke-opacity="null" stroke-width="0" fill="#ffffff"/>
 </g>
</svg>